<?xml version="1.0" encoding="UTF-8" standalone="no"?>
<!-- Created with Vectornator (http://vectornator.io/) -->

<svg
   height="180"
   stroke-miterlimit="10"
   style="clip-rule:evenodd;fill-rule:nonzero;stroke-linecap:round;stroke-linejoin:round"
   version="1.1"
   viewBox="0 0 180 180"
   width="180"
   xml:space="preserve"
   id="svg8"
   xmlns="http://www.w3.org/2000/svg"
   xmlns:svg="http://www.w3.org/2000/svg">
<defs
   id="defs5" />


<path
   d="M 5,3.21394 C 5,1.746947 6.189256,0.55769 7.65625,0.55769 h 164.6875 c 1.46731,0 2.65625,1.189257 2.65625,2.65625 v 10.939926 c 0,1.466993 -1.18894,2.65625 -2.65625,2.65625 H 7.65625 C 6.189256,16.810116 5,15.620859 5,14.153866 Z m 13.001919,27.087269 c 0,-1.466994 1.189256,-2.65625 2.65625,-2.65625 H 172.34375 c 1.46731,0 2.65625,1.189256 2.65625,2.65625 v 10.939925 c 0,1.466994 -1.18894,2.65625 -2.65625,2.65625 H 20.658169 c -1.466994,0 -2.65625,-1.189256 -2.65625,-2.65625 z M 5,57.496959 c 0,-1.4671 1.189256,-2.65625 2.65625,-2.65625 h 141.60894 c 1.46731,0 2.65625,1.18915 2.65625,2.65625 v 10.939604 c 0,1.46732 -1.18894,2.65625 -2.65625,2.65625 H 7.65625 C 6.189256,71.092813 5,69.903883 5,68.436563 Z m 35.186388,27.087484 c 0,-1.46731 1.189256,-2.65625 2.65625,-2.65625 H 172.34375 c 1.46731,0 2.65625,1.18894 2.65625,2.65625 v 10.9395 c 0,1.46731 -1.18894,2.65625 -2.65625,2.65625 H 42.842638 c -1.466994,0 -2.65625,-1.18894 -2.65625,-2.65625 z M 74.55975,111.67181 c 0,-1.46731 1.19,-2.65625 2.65625,-2.65625 h 72.04919 c 1.46731,0 2.65625,1.18894 2.65625,2.65625 v 10.9395 c 0,1.46731 -1.18894,2.65625 -2.65625,2.65625 H 77.216 c -1.46625,0 -2.65625,-1.18894 -2.65625,-2.65625 z m 0,25.69125 c 0,-0.69594 0.56525,-1.26012 1.26119,-1.26012 h 48.74112 c 1.46625,0 2.65625,1.18893 2.65625,2.65625 v 10.9395 c 0,1.46731 -1.19,2.65625 -2.65625,2.65625 H 77.216 c -1.46625,0 -2.65625,-1.18894 -2.65625,-2.65625 z m 0,28.4835 c 0,-1.46731 1.19,-2.65625 2.65625,-2.65625 h 24.2675 c 1.46731,0 2.65625,1.18894 2.65625,2.65625 v 10.9395 c 0,1.46731 -1.18894,2.65625 -2.65625,2.65625 H 77.216 c -1.46625,0 -2.65625,-1.18894 -2.65625,-2.65625 z"
   id="use7"
   style="fill:#ffffff;fill-opacity:1;fill-rule:nonzero;stroke:none;stroke-width:1.0625" />


</svg>
